<?xml version="1.0" encoding="UTF-8" standalone="no"?>
<!DOCTYPE svg PUBLIC "-//W3C//DTD SVG 1.1//EN"
 "http://www.w3.org/Graphics/SVG/1.1/DTD/svg11.dtd">
<!-- Generated by graphviz version 2.43.0 (0)
 -->
<!-- Title: cryptnox_architecture Pages: 1 -->
<svg width="734pt" height="161pt"
 viewBox="0.00 0.00 734.00 161.00" xmlns="http://www.w3.org/2000/svg" xmlns:xlink="http://www.w3.org/1999/xlink">
<g id="graph0" class="graph" transform="scale(1 1) rotate(0) translate(4 157)">
<title>cryptnox_architecture</title>
<!-- User -->
<g id="node1" class="node">
<title>User</title>
<path fill="gray" stroke="black" d="M76,-122C76,-122 12,-122 12,-122 6,-122 0,-116 0,-110 0,-110 0,-98 0,-98 0,-92 6,-86 12,-86 12,-86 76,-86 76,-86 82,-86 88,-92 88,-98 88,-98 88,-110 88,-110 88,-116 82,-122 76,-122"/>
<text text-anchor="middle" x="44" y="-101.5" font-family="Arial" font-size="10.00">User Application</text>
</g>
<!-- Factory -->
<g id="node2" class="node">
<title>Factory</title>
<path fill="lightgray" stroke="black" d="M206,-122C206,-122 170,-122 170,-122 164,-122 158,-116 158,-110 158,-110 158,-98 158,-98 158,-92 164,-86 170,-86 170,-86 206,-86 206,-86 212,-86 218,-92 218,-98 218,-98 218,-110 218,-110 218,-116 212,-122 206,-122"/>
<text text-anchor="middle" x="188" y="-107" font-family="Arial" font-size="10.00">Factory</text>
<text text-anchor="middle" x="188" y="-96" font-family="Arial" font-size="10.00">(get_card)</text>
</g>
<!-- User&#45;&gt;Factory -->
<g id="edge1" class="edge">
<title>User&#45;&gt;Factory</title>
<path fill="none" stroke="black" d="M88.38,-104C107.28,-104 129.28,-104 147.7,-104"/>
<polygon fill="black" stroke="black" points="147.8,-107.5 157.8,-104 147.8,-100.5 147.8,-107.5"/>
<text text-anchor="middle" x="123" y="-106.8" font-family="Times,serif" font-size="9.00">creates</text>
</g>
<!-- Reader -->
<g id="node3" class="node">
<title>Reader</title>
<path fill="lightgray" stroke="black" d="M378,-153C378,-153 348,-153 348,-153 342,-153 336,-147 336,-141 336,-141 336,-129 336,-129 336,-123 342,-117 348,-117 348,-117 378,-117 378,-117 384,-117 390,-123 390,-129 390,-129 390,-141 390,-141 390,-147 384,-153 378,-153"/>
<text text-anchor="middle" x="363" y="-132.5" font-family="Arial" font-size="10.00">Reader</text>
</g>
<!-- Factory&#45;&gt;Reader -->
<g id="edge2" class="edge">
<title>Factory&#45;&gt;Reader</title>
<path fill="none" stroke="black" d="M218.35,-109.26C247.97,-114.57 293.77,-122.77 325.67,-128.49"/>
<polygon fill="black" stroke="black" points="325.45,-132.01 335.91,-130.32 326.68,-125.12 325.45,-132.01"/>
<text text-anchor="middle" x="263.5" y="-125.8" font-family="Times,serif" font-size="9.00">uses</text>
</g>
<!-- Card -->
<g id="node5" class="node">
<title>Card</title>
<path fill="lightgray" stroke="black" d="M405,-96C405,-96 321,-96 321,-96 315,-96 309,-90 309,-84 309,-84 309,-72 309,-72 309,-66 315,-60 321,-60 321,-60 405,-60 405,-60 411,-60 417,-66 417,-72 417,-72 417,-84 417,-84 417,-90 411,-96 405,-96"/>
<text text-anchor="middle" x="363" y="-81" font-family="Arial" font-size="10.00">Card Classes</text>
<text text-anchor="middle" x="363" y="-70" font-family="Arial" font-size="10.00">(Base, BasicG1, Nft)</text>
</g>
<!-- Factory&#45;&gt;Card -->
<g id="edge4" class="edge">
<title>Factory&#45;&gt;Card</title>
<path fill="none" stroke="black" d="M218.01,-97.43C223.94,-96.2 230.16,-94.99 236,-94 256.36,-90.55 278.7,-87.48 298.83,-84.98"/>
<polygon fill="black" stroke="black" points="299.32,-88.44 308.83,-83.76 298.47,-81.49 299.32,-88.44"/>
<text text-anchor="middle" x="263.5" y="-96.8" font-family="Times,serif" font-size="9.00">instantiates</text>
</g>
<!-- Connection -->
<g id="node4" class="node">
<title>Connection</title>
<path fill="lightgray" stroke="black" d="M542.5,-150C542.5,-150 500.5,-150 500.5,-150 494.5,-150 488.5,-144 488.5,-138 488.5,-138 488.5,-126 488.5,-126 488.5,-120 494.5,-114 500.5,-114 500.5,-114 542.5,-114 542.5,-114 548.5,-114 554.5,-120 554.5,-126 554.5,-126 554.5,-138 554.5,-138 554.5,-144 548.5,-150 542.5,-150"/>
<text text-anchor="middle" x="521.5" y="-129.5" font-family="Arial" font-size="10.00">Connection</text>
</g>
<!-- Reader&#45;&gt;Connection -->
<g id="edge3" class="edge">
<title>Reader&#45;&gt;Connection</title>
<path fill="none" stroke="black" d="M390.19,-134.5C414.11,-134.04 449.91,-133.35 477.93,-132.82"/>
<polygon fill="black" stroke="black" points="478.32,-136.31 488.25,-132.62 478.19,-129.31 478.32,-136.31"/>
<text text-anchor="middle" x="452" y="-136.8" font-family="Times,serif" font-size="9.00">creates</text>
</g>
<!-- SmartCard -->
<g id="node8" class="node">
<title>SmartCard</title>
<path fill="gray" stroke="black" d="M714,-150C714,-150 671,-150 671,-150 665,-150 659,-144 659,-138 659,-138 659,-126 659,-126 659,-120 665,-114 671,-114 671,-114 714,-114 714,-114 720,-114 726,-120 726,-126 726,-126 726,-138 726,-138 726,-144 720,-150 714,-150"/>
<text text-anchor="middle" x="692.5" y="-135" font-family="Arial" font-size="10.00">Smart Card</text>
<text text-anchor="middle" x="692.5" y="-124" font-family="Arial" font-size="10.00">Hardware</text>
</g>
<!-- Connection&#45;&gt;SmartCard -->
<g id="edge6" class="edge">
<title>Connection&#45;&gt;SmartCard</title>
<path fill="none" stroke="black" d="M554.69,-132C581.3,-132 619.32,-132 648.53,-132"/>
<polygon fill="black" stroke="black" points="648.86,-135.5 658.86,-132 648.86,-128.5 648.86,-135.5"/>
<text text-anchor="middle" x="607.5" y="-134.8" font-family="Times,serif" font-size="9.00">communicates</text>
</g>
<!-- Card&#45;&gt;Connection -->
<g id="edge5" class="edge">
<title>Card&#45;&gt;Connection</title>
<path fill="none" stroke="black" d="M416.55,-96.13C436.81,-103.12 459.67,-111.01 478.77,-117.6"/>
<polygon fill="black" stroke="black" points="477.8,-120.97 488.39,-120.92 480.08,-114.35 477.8,-120.97"/>
<text text-anchor="middle" x="452" y="-115.8" font-family="Times,serif" font-size="9.00">uses</text>
</g>
<!-- CryptoUtils -->
<g id="node6" class="node">
<title>CryptoUtils</title>
<path fill="lightgray" stroke="black" d="M544,-90C544,-90 499,-90 499,-90 493,-90 487,-84 487,-78 487,-78 487,-66 487,-66 487,-60 493,-54 499,-54 499,-54 544,-54 544,-54 550,-54 556,-60 556,-66 556,-66 556,-78 556,-78 556,-84 550,-90 544,-90"/>
<text text-anchor="middle" x="521.5" y="-69.5" font-family="Arial" font-size="10.00">Crypto Utils</text>
</g>
<!-- Card&#45;&gt;CryptoUtils -->
<g id="edge7" class="edge">
<title>Card&#45;&gt;CryptoUtils</title>
<path fill="none" stroke="black" d="M417.1,-73.92C423.13,-73.56 429.2,-73.24 435,-73 448.46,-72.45 463.12,-72.16 476.44,-72.02"/>
<polygon fill="black" stroke="black" points="476.81,-75.52 486.78,-71.94 476.76,-68.52 476.81,-75.52"/>
<text text-anchor="middle" x="452" y="-75.8" font-family="Times,serif" font-size="9.00">uses</text>
</g>
<!-- BinaryUtils -->
<g id="node7" class="node">
<title>BinaryUtils</title>
<path fill="lightgray" stroke="black" d="M543.5,-36C543.5,-36 499.5,-36 499.5,-36 493.5,-36 487.5,-30 487.5,-24 487.5,-24 487.5,-12 487.5,-12 487.5,-6 493.5,0 499.5,0 499.5,0 543.5,0 543.5,0 549.5,0 555.5,-6 555.5,-12 555.5,-12 555.5,-24 555.5,-24 555.5,-30 549.5,-36 543.5,-36"/>
<text text-anchor="middle" x="521.5" y="-15.5" font-family="Arial" font-size="10.00">Binary Utils</text>
</g>
<!-- Card&#45;&gt;BinaryUtils -->
<g id="edge8" class="edge">
<title>Card&#45;&gt;BinaryUtils</title>
<path fill="none" stroke="black" d="M410.96,-60C432.25,-51.83 457.25,-42.25 477.99,-34.3"/>
<polygon fill="black" stroke="black" points="479.4,-37.5 487.49,-30.66 476.9,-30.97 479.4,-37.5"/>
<text text-anchor="middle" x="452" y="-52.8" font-family="Times,serif" font-size="9.00">uses</text>
</g>
</g>
</svg>
