<?xml version="1.0" encoding="UTF-8" standalone="no"?>
<!DOCTYPE svg PUBLIC "-//W3C//DTD SVG 1.1//EN"
 "http://www.w3.org/Graphics/SVG/1.1/DTD/svg11.dtd">
<!-- Generated by graphviz version 2.43.0 (0)
 -->
<!-- Title: card_operation_flow Pages: 1 -->
<svg width="271pt" height="454pt"
 viewBox="0.00 0.00 270.50 454.00" xmlns="http://www.w3.org/2000/svg" xmlns:xlink="http://www.w3.org/1999/xlink">
<g id="graph0" class="graph" transform="scale(1 1) rotate(0) translate(4 450)">
<title>card_operation_flow</title>
<!-- Start -->
<g id="node1" class="node">
<title>Start</title>
<ellipse fill="gray" stroke="black" cx="135.5" cy="-428" rx="61.44" ry="18"/>
<text text-anchor="middle" x="135.5" y="-425.5" font-family="Arial" font-size="10.00">Application Request</text>
</g>
<!-- Card -->
<g id="node2" class="node">
<title>Card</title>
<path fill="lightgray" stroke="black" d="M158,-364C158,-364 113,-364 113,-364 107,-364 101,-358 101,-352 101,-352 101,-340 101,-340 101,-334 107,-328 113,-328 113,-328 158,-328 158,-328 164,-328 170,-334 170,-340 170,-340 170,-352 170,-352 170,-358 164,-364 158,-364"/>
<text text-anchor="middle" x="135.5" y="-343.5" font-family="Arial" font-size="10.00">Card Object</text>
</g>
<!-- Start&#45;&gt;Card -->
<g id="edge1" class="edge">
<title>Start&#45;&gt;Card</title>
<path fill="none" stroke="black" d="M135.5,-409.64C135.5,-399.3 135.5,-385.94 135.5,-374.22"/>
<polygon fill="black" stroke="black" points="139,-374.05 135.5,-364.05 132,-374.05 139,-374.05"/>
<text text-anchor="middle" x="163" y="-384.8" font-family="Times,serif" font-size="9.00">method call</text>
</g>
<!-- Connection -->
<g id="node3" class="node">
<title>Connection</title>
<path fill="lightgray" stroke="black" d="M105,-282C105,-282 36,-282 36,-282 30,-282 24,-276 24,-270 24,-270 24,-258 24,-258 24,-252 30,-246 36,-246 36,-246 105,-246 105,-246 111,-246 117,-252 117,-258 117,-258 117,-270 117,-270 117,-276 111,-282 105,-282"/>
<text text-anchor="middle" x="70.5" y="-261.5" font-family="Arial" font-size="10.00">Connection Layer</text>
</g>
<!-- Card&#45;&gt;Connection -->
<g id="edge2" class="edge">
<title>Card&#45;&gt;Connection</title>
<path fill="none" stroke="black" d="M100.61,-339.57C83.03,-334.87 63.22,-326.16 52.5,-310 48.69,-304.25 49.16,-297.57 51.57,-291.15"/>
<polygon fill="black" stroke="black" points="54.78,-292.55 56.2,-282.05 48.54,-289.37 54.78,-292.55"/>
<text text-anchor="middle" x="83" y="-302.8" font-family="Times,serif" font-size="9.00">send request</text>
</g>
<!-- Process -->
<g id="node7" class="node">
<title>Process</title>
<path fill="lightgray" stroke="black" d="M250.5,-282C250.5,-282 174.5,-282 174.5,-282 168.5,-282 162.5,-276 162.5,-270 162.5,-270 162.5,-258 162.5,-258 162.5,-252 168.5,-246 174.5,-246 174.5,-246 250.5,-246 250.5,-246 256.5,-246 262.5,-252 262.5,-258 262.5,-258 262.5,-270 262.5,-270 262.5,-276 256.5,-282 250.5,-282"/>
<text text-anchor="middle" x="212.5" y="-261.5" font-family="Arial" font-size="10.00">Process Response</text>
</g>
<!-- Card&#45;&gt;Process -->
<g id="edge8" class="edge">
<title>Card&#45;&gt;Process</title>
<path fill="none" stroke="black" d="M158.71,-327.8C165.39,-322.41 172.49,-316.24 178.5,-310 184.33,-303.95 190.07,-296.91 195.13,-290.21"/>
<polygon fill="black" stroke="black" points="198.04,-292.15 201.12,-282.01 192.39,-288.02 198.04,-292.15"/>
<text text-anchor="middle" x="206" y="-302.8" font-family="Times,serif" font-size="9.00">validate</text>
</g>
<!-- Connection&#45;&gt;Card -->
<g id="edge7" class="edge">
<title>Connection&#45;&gt;Card</title>
<path fill="none" stroke="black" d="M95.39,-282.23C101.81,-287.44 108.35,-293.52 113.5,-300 117.93,-305.58 121.78,-312.2 124.97,-318.63"/>
<polygon fill="black" stroke="black" points="121.8,-320.12 129.15,-327.75 128.16,-317.2 121.8,-320.12"/>
<text text-anchor="middle" x="147.5" y="-302.8" font-family="Times,serif" font-size="9.00">return data</text>
</g>
<!-- APDU -->
<g id="node4" class="node">
<title>APDU</title>
<path fill="lightgray" stroke="black" d="M81,-200C81,-200 12,-200 12,-200 6,-200 0,-194 0,-188 0,-188 0,-176 0,-176 0,-170 6,-164 12,-164 12,-164 81,-164 81,-164 87,-164 93,-170 93,-176 93,-176 93,-188 93,-188 93,-194 87,-200 81,-200"/>
<text text-anchor="middle" x="46.5" y="-179.5" font-family="Arial" font-size="10.00">APDU Command</text>
</g>
<!-- Connection&#45;&gt;APDU -->
<g id="edge3" class="edge">
<title>Connection&#45;&gt;APDU</title>
<path fill="none" stroke="black" d="M65.29,-245.64C62.16,-235.19 58.1,-221.67 54.56,-209.86"/>
<polygon fill="black" stroke="black" points="57.84,-208.62 51.62,-200.05 51.14,-210.63 57.84,-208.62"/>
<text text-anchor="middle" x="76" y="-220.8" font-family="Times,serif" font-size="9.00">format</text>
</g>
<!-- SmartCard -->
<g id="node5" class="node">
<title>SmartCard</title>
<path fill="lightgray" stroke="black" d="M81,-118C81,-118 38,-118 38,-118 32,-118 26,-112 26,-106 26,-106 26,-94 26,-94 26,-88 32,-82 38,-82 38,-82 81,-82 81,-82 87,-82 93,-88 93,-94 93,-94 93,-106 93,-106 93,-112 87,-118 81,-118"/>
<text text-anchor="middle" x="59.5" y="-97.5" font-family="Arial" font-size="10.00">Smart Card</text>
</g>
<!-- APDU&#45;&gt;SmartCard -->
<g id="edge4" class="edge">
<title>APDU&#45;&gt;SmartCard</title>
<path fill="none" stroke="black" d="M49.32,-163.64C51,-153.3 53.17,-139.94 55.08,-128.22"/>
<polygon fill="black" stroke="black" points="58.58,-128.48 56.73,-118.05 51.67,-127.36 58.58,-128.48"/>
<text text-anchor="middle" x="74.5" y="-138.8" font-family="Times,serif" font-size="9.00">transmit</text>
</g>
<!-- Response -->
<g id="node6" class="node">
<title>Response</title>
<path fill="lightgray" stroke="black" d="M121,-36C121,-36 60,-36 60,-36 54,-36 48,-30 48,-24 48,-24 48,-12 48,-12 48,-6 54,0 60,0 60,0 121,0 121,0 127,0 133,-6 133,-12 133,-12 133,-24 133,-24 133,-30 127,-36 121,-36"/>
<text text-anchor="middle" x="90.5" y="-15.5" font-family="Arial" font-size="10.00">Card Response</text>
</g>
<!-- SmartCard&#45;&gt;Response -->
<g id="edge5" class="edge">
<title>SmartCard&#45;&gt;Response</title>
<path fill="none" stroke="black" d="M64.22,-81.69C66.69,-73.24 69.95,-62.98 73.5,-54 74.63,-51.14 75.9,-48.19 77.22,-45.27"/>
<polygon fill="black" stroke="black" points="80.39,-46.75 81.5,-36.22 74.06,-43.76 80.39,-46.75"/>
<text text-anchor="middle" x="90.5" y="-56.8" font-family="Times,serif" font-size="9.00">receive</text>
</g>
<!-- Response&#45;&gt;Connection -->
<g id="edge6" class="edge">
<title>Response&#45;&gt;Connection</title>
<path fill="none" stroke="black" d="M100.78,-36.23C103.52,-41.72 106.11,-47.94 107.5,-54 122.06,-117.29 109.76,-135.58 101.5,-200 99.88,-212.62 100.64,-216.36 95.5,-228 94.14,-231.07 92.49,-234.15 90.69,-237.13"/>
<polygon fill="black" stroke="black" points="87.62,-235.43 84.98,-245.69 93.44,-239.31 87.62,-235.43"/>
<text text-anchor="middle" x="125.5" y="-138.8" font-family="Times,serif" font-size="9.00">parse</text>
</g>
<!-- Result -->
<g id="node8" class="node">
<title>Result</title>
<ellipse fill="gray" stroke="black" cx="212.5" cy="-182" rx="45.15" ry="18"/>
<text text-anchor="middle" x="212.5" y="-179.5" font-family="Arial" font-size="10.00">Return Result</text>
</g>
<!-- Process&#45;&gt;Result -->
<g id="edge9" class="edge">
<title>Process&#45;&gt;Result</title>
<path fill="none" stroke="black" d="M212.5,-245.64C212.5,-235.3 212.5,-221.94 212.5,-210.22"/>
<polygon fill="black" stroke="black" points="216,-210.05 212.5,-200.05 209,-210.05 216,-210.05"/>
</g>
</g>
</svg>
