<?xml version="1.0" encoding="UTF-8" standalone="no"?>
<!DOCTYPE svg PUBLIC "-//W3C//DTD SVG 1.1//EN"
 "http://www.w3.org/Graphics/SVG/1.1/DTD/svg11.dtd">
<!-- Generated by graphviz version 2.43.0 (0)
 -->
<!-- Title: enums Pages: 1 -->
<svg width="692pt" height="187pt"
 viewBox="0.00 0.00 692.00 187.00" xmlns="http://www.w3.org/2000/svg" xmlns:xlink="http://www.w3.org/1999/xlink">
<g id="graph0" class="graph" transform="scale(1 1) rotate(0) translate(4 183)">
<title>enums</title>
<!-- Enum -->
<g id="node1" class="node">
<title>Enum</title>
<path fill="gray" stroke="black" d="M171,-179C171,-179 129,-179 129,-179 123,-179 117,-173 117,-167 117,-167 117,-155 117,-155 117,-149 123,-143 129,-143 129,-143 171,-143 171,-143 177,-143 183,-149 183,-155 183,-155 183,-167 183,-167 183,-173 177,-179 171,-179"/>
<text text-anchor="middle" x="150" y="-158.8" font-family="Arial" font-size="9.00">enum.Enum</text>
</g>
<!-- AuthType -->
<g id="node3" class="node">
<title>AuthType</title>
<path fill="lightgray" stroke="black" d="M76,-85C76,-85 12,-85 12,-85 6,-85 0,-79 0,-73 0,-73 0,-34 0,-34 0,-28 6,-22 12,-22 12,-22 76,-22 76,-22 82,-22 88,-28 88,-34 88,-34 88,-73 88,-73 88,-79 82,-85 76,-85"/>
<text text-anchor="middle" x="44" y="-73" font-family="Arial" font-size="10.00">AuthType</text>
<text text-anchor="middle" x="44" y="-62" font-family="Arial" font-size="10.00">─────────</text>
<text text-anchor="middle" x="44" y="-51" font-family="Arial" font-size="10.00">NO_AUTH = 0</text>
<text text-anchor="middle" x="44" y="-40" font-family="Arial" font-size="10.00">PIN = 1</text>
<text text-anchor="middle" x="44" y="-29" font-family="Arial" font-size="10.00">USER_KEY = 2</text>
</g>
<!-- Enum&#45;&gt;AuthType -->
<g id="edge1" class="edge">
<title>Enum&#45;&gt;AuthType</title>
<path fill="none" stroke="black" d="M132.5,-142.58C118.32,-128.47 97.88,-108.12 80.21,-90.54"/>
<polygon fill="black" stroke="black" points="81.51,-88.38 74.82,-85.18 78.06,-91.85 81.51,-88.38"/>
</g>
<!-- Origin -->
<g id="node4" class="node">
<title>Origin</title>
<path fill="lightgray" stroke="black" d="M182,-85C182,-85 118,-85 118,-85 112,-85 106,-79 106,-73 106,-73 106,-34 106,-34 106,-28 112,-22 118,-22 118,-22 182,-22 182,-22 188,-22 194,-28 194,-34 194,-34 194,-73 194,-73 194,-79 188,-85 182,-85"/>
<text text-anchor="middle" x="150" y="-73" font-family="Arial" font-size="10.00">Origin</text>
<text text-anchor="middle" x="150" y="-62" font-family="Arial" font-size="10.00">─────────</text>
<text text-anchor="middle" x="150" y="-51" font-family="Arial" font-size="10.00">UNKNOWN = 0</text>
<text text-anchor="middle" x="150" y="-40" font-family="Arial" font-size="10.00">ORIGINAL = 1</text>
<text text-anchor="middle" x="150" y="-29" font-family="Arial" font-size="10.00">FAKE = 2</text>
</g>
<!-- Enum&#45;&gt;Origin -->
<g id="edge2" class="edge">
<title>Enum&#45;&gt;Origin</title>
<path fill="none" stroke="black" d="M150,-142.58C150,-128.96 150,-109.52 150,-92.37"/>
<polygon fill="black" stroke="black" points="152.45,-92.18 150,-85.18 147.55,-92.18 152.45,-92.18"/>
</g>
<!-- SeedSource -->
<g id="node5" class="node">
<title>SeedSource</title>
<path fill="lightgray" stroke="black" d="M277.5,-107C277.5,-107 224.5,-107 224.5,-107 218.5,-107 212.5,-101 212.5,-95 212.5,-95 212.5,-12 212.5,-12 212.5,-6 218.5,0 224.5,0 224.5,0 277.5,0 277.5,0 283.5,0 289.5,-6 289.5,-12 289.5,-12 289.5,-95 289.5,-95 289.5,-101 283.5,-107 277.5,-107"/>
<text text-anchor="middle" x="251" y="-95" font-family="Arial" font-size="10.00">SeedSource</text>
<text text-anchor="middle" x="251" y="-84" font-family="Arial" font-size="10.00">─────────</text>
<text text-anchor="middle" x="251" y="-73" font-family="Arial" font-size="10.00">NO_SEED</text>
<text text-anchor="middle" x="251" y="-62" font-family="Arial" font-size="10.00">SINGLE</text>
<text text-anchor="middle" x="251" y="-51" font-family="Arial" font-size="10.00">EXTENDED</text>
<text text-anchor="middle" x="251" y="-40" font-family="Arial" font-size="10.00">EXTERNAL</text>
<text text-anchor="middle" x="251" y="-29" font-family="Arial" font-size="10.00">INTERNAL</text>
<text text-anchor="middle" x="251" y="-18" font-family="Arial" font-size="10.00">DUAL</text>
<text text-anchor="middle" x="251" y="-7" font-family="Arial" font-size="10.00">WRAPPED</text>
</g>
<!-- Enum&#45;&gt;SeedSource -->
<g id="edge3" class="edge">
<title>Enum&#45;&gt;SeedSource</title>
<path fill="none" stroke="black" d="M167.87,-142.53C178.24,-132.29 191.49,-119.04 203,-107 204.44,-105.49 205.9,-103.96 207.37,-102.4"/>
<polygon fill="black" stroke="black" points="209.38,-103.84 212.39,-97.06 205.81,-100.48 209.38,-103.84"/>
</g>
<!-- IntEnum -->
<g id="node2" class="node">
<title>IntEnum</title>
<path fill="gray" stroke="black" d="M561,-179C561,-179 509,-179 509,-179 503,-179 497,-173 497,-167 497,-167 497,-155 497,-155 497,-149 503,-143 509,-143 509,-143 561,-143 561,-143 567,-143 573,-149 573,-155 573,-155 573,-167 573,-167 573,-173 567,-179 561,-179"/>
<text text-anchor="middle" x="535" y="-158.8" font-family="Arial" font-size="9.00">enum.IntEnum</text>
</g>
<!-- Derivation -->
<g id="node6" class="node">
<title>Derivation</title>
<path fill="lightgray" stroke="black" d="M466.5,-90.5C466.5,-90.5 319.5,-90.5 319.5,-90.5 313.5,-90.5 307.5,-84.5 307.5,-78.5 307.5,-78.5 307.5,-28.5 307.5,-28.5 307.5,-22.5 313.5,-16.5 319.5,-16.5 319.5,-16.5 466.5,-16.5 466.5,-16.5 472.5,-16.5 478.5,-22.5 478.5,-28.5 478.5,-28.5 478.5,-78.5 478.5,-78.5 478.5,-84.5 472.5,-90.5 466.5,-90.5"/>
<text text-anchor="middle" x="393" y="-78.5" font-family="Arial" font-size="10.00">Derivation</text>
<text text-anchor="middle" x="393" y="-67.5" font-family="Arial" font-size="10.00">─────────</text>
<text text-anchor="middle" x="393" y="-56.5" font-family="Arial" font-size="10.00">CURRENT_KEY</text>
<text text-anchor="middle" x="393" y="-45.5" font-family="Arial" font-size="10.00">DERIVE</text>
<text text-anchor="middle" x="393" y="-34.5" font-family="Arial" font-size="10.00">DERIVE_AND_MAKE_CURRENT</text>
<text text-anchor="middle" x="393" y="-23.5" font-family="Arial" font-size="10.00">PINLESS_PATH</text>
</g>
<!-- IntEnum&#45;&gt;Derivation -->
<g id="edge4" class="edge">
<title>IntEnum&#45;&gt;Derivation</title>
<path fill="none" stroke="black" d="M511.87,-142.81C494.41,-129.84 469.72,-111.5 447.36,-94.89"/>
<polygon fill="black" stroke="black" points="448.81,-92.92 441.73,-90.71 445.89,-96.85 448.81,-92.92"/>
</g>
<!-- KeyType -->
<g id="node7" class="node">
<title>KeyType</title>
<path fill="lightgray" stroke="black" d="M561.5,-79.5C561.5,-79.5 508.5,-79.5 508.5,-79.5 502.5,-79.5 496.5,-73.5 496.5,-67.5 496.5,-67.5 496.5,-39.5 496.5,-39.5 496.5,-33.5 502.5,-27.5 508.5,-27.5 508.5,-27.5 561.5,-27.5 561.5,-27.5 567.5,-27.5 573.5,-33.5 573.5,-39.5 573.5,-39.5 573.5,-67.5 573.5,-67.5 573.5,-73.5 567.5,-79.5 561.5,-79.5"/>
<text text-anchor="middle" x="535" y="-67.5" font-family="Arial" font-size="10.00">KeyType</text>
<text text-anchor="middle" x="535" y="-56.5" font-family="Arial" font-size="10.00">─────────</text>
<text text-anchor="middle" x="535" y="-45.5" font-family="Arial" font-size="10.00">K1 = 0x00</text>
<text text-anchor="middle" x="535" y="-34.5" font-family="Arial" font-size="10.00">R1 = 0x10</text>
</g>
<!-- IntEnum&#45;&gt;KeyType -->
<g id="edge5" class="edge">
<title>IntEnum&#45;&gt;KeyType</title>
<path fill="none" stroke="black" d="M535,-142.58C535,-127.49 535,-105.27 535,-86.92"/>
<polygon fill="black" stroke="black" points="537.45,-86.85 535,-79.85 532.55,-86.85 537.45,-86.85"/>
</g>
<!-- SlotIndex -->
<g id="node8" class="node">
<title>SlotIndex</title>
<path fill="lightgray" stroke="black" d="M672,-85C672,-85 604,-85 604,-85 598,-85 592,-79 592,-73 592,-73 592,-34 592,-34 592,-28 598,-22 604,-22 604,-22 672,-22 672,-22 678,-22 684,-28 684,-34 684,-34 684,-73 684,-73 684,-79 678,-85 672,-85"/>
<text text-anchor="middle" x="638" y="-73" font-family="Arial" font-size="10.00">SlotIndex</text>
<text text-anchor="middle" x="638" y="-62" font-family="Arial" font-size="10.00">─────────</text>
<text text-anchor="middle" x="638" y="-51" font-family="Arial" font-size="10.00">EC256R1 = 0x01</text>
<text text-anchor="middle" x="638" y="-40" font-family="Arial" font-size="10.00">RSA = 0x02</text>
<text text-anchor="middle" x="638" y="-29" font-family="Arial" font-size="10.00">FIDO = 0x03</text>
</g>
<!-- IntEnum&#45;&gt;SlotIndex -->
<g id="edge6" class="edge">
<title>IntEnum&#45;&gt;SlotIndex</title>
<path fill="none" stroke="black" d="M552.01,-142.58C565.78,-128.47 585.65,-108.12 602.82,-90.54"/>
<polygon fill="black" stroke="black" points="604.91,-91.9 608.05,-85.18 601.41,-88.48 604.91,-91.9"/>
</g>
</g>
</svg>
