<?xml version="1.0" encoding="UTF-8" standalone="no"?>
<!DOCTYPE svg PUBLIC "-//W3C//DTD SVG 1.1//EN"
 "http://www.w3.org/Graphics/SVG/1.1/DTD/svg11.dtd">
<!-- Generated by graphviz version 2.43.0 (0)
 -->
<!-- Title: connection_components Pages: 1 -->
<svg width="288pt" height="219pt"
 viewBox="0.00 0.00 288.00 219.00" xmlns="http://www.w3.org/2000/svg" xmlns:xlink="http://www.w3.org/1999/xlink">
<g id="graph0" class="graph" transform="scale(1 1) rotate(0) translate(4 215)">
<title>connection_components</title>
<!-- ContextDecorator -->
<g id="node1" class="node">
<title>ContextDecorator</title>
<path fill="gray" stroke="black" d="M118.5,-211C118.5,-211 12.5,-211 12.5,-211 6.5,-211 0.5,-205 0.5,-199 0.5,-199 0.5,-187 0.5,-187 0.5,-181 6.5,-175 12.5,-175 12.5,-175 118.5,-175 118.5,-175 124.5,-175 130.5,-181 130.5,-187 130.5,-187 130.5,-199 130.5,-199 130.5,-205 124.5,-211 118.5,-211"/>
<text text-anchor="middle" x="65.5" y="-190.8" font-family="Arial" font-size="9.00">contextlib.ContextDecorator</text>
</g>
<!-- Connection -->
<g id="node3" class="node">
<title>Connection</title>
<path fill="lightgray" stroke="black" d="M119,-129C119,-129 12,-129 12,-129 6,-129 0,-123 0,-117 0,-117 0,-12 0,-12 0,-6 6,0 12,0 12,0 119,0 119,0 125,0 131,-6 131,-12 131,-12 131,-117 131,-117 131,-123 125,-129 119,-129"/>
<text text-anchor="middle" x="65.5" y="-117" font-family="Arial" font-size="10.00">Connection</text>
<text text-anchor="middle" x="65.5" y="-106" font-family="Arial" font-size="10.00">─────────────────</text>
<text text-anchor="middle" x="65.5" y="-95" font-family="Arial" font-size="10.00">index: int</text>
<text text-anchor="middle" x="65.5" y="-84" font-family="Arial" font-size="10.00">debug: bool</text>
<text text-anchor="middle" x="65.5" y="-73" font-family="Arial" font-size="10.00">remote: bool</text>
<text text-anchor="middle" x="65.5" y="-62" font-family="Arial" font-size="10.00">session_public_key: str</text>
<text text-anchor="middle" x="65.5" y="-51" font-family="Arial" font-size="10.00">─────────────────</text>
<text text-anchor="middle" x="65.5" y="-40" font-family="Arial" font-size="10.00">send_apdu()</text>
<text text-anchor="middle" x="65.5" y="-29" font-family="Arial" font-size="10.00">send_encrypted()</text>
<text text-anchor="middle" x="65.5" y="-18" font-family="Arial" font-size="10.00">disconnect()</text>
<text text-anchor="middle" x="65.5" y="-7" font-family="Arial" font-size="10.00">remote_read()</text>
</g>
<!-- ContextDecorator&#45;&gt;Connection -->
<g id="edge1" class="edge">
<title>ContextDecorator&#45;&gt;Connection</title>
<path fill="none" stroke="black" d="M65.5,-174.94C65.5,-164.62 65.5,-150.7 65.5,-136.25"/>
<polygon fill="black" stroke="black" points="67.95,-136.13 65.5,-129.13 63.05,-136.13 67.95,-136.13"/>
</g>
<!-- ABCMeta -->
<g id="node2" class="node">
<title>ABCMeta</title>
<path fill="gray" stroke="black" d="M239,-211C239,-211 190,-211 190,-211 184,-211 178,-205 178,-199 178,-199 178,-187 178,-187 178,-181 184,-175 190,-175 190,-175 239,-175 239,-175 245,-175 251,-181 251,-187 251,-187 251,-199 251,-199 251,-205 245,-211 239,-211"/>
<text text-anchor="middle" x="214.5" y="-195.8" font-family="Arial" font-size="9.00">abc.ABCMeta</text>
<text text-anchor="middle" x="214.5" y="-185.8" font-family="Arial" font-size="9.00">(metaclass)</text>
</g>
<!-- Reader -->
<g id="node4" class="node">
<title>Reader</title>
<path fill="gray" stroke="black" d="M268,-112.5C268,-112.5 161,-112.5 161,-112.5 155,-112.5 149,-106.5 149,-100.5 149,-100.5 149,-28.5 149,-28.5 149,-22.5 155,-16.5 161,-16.5 161,-16.5 268,-16.5 268,-16.5 274,-16.5 280,-22.5 280,-28.5 280,-28.5 280,-100.5 280,-100.5 280,-106.5 274,-112.5 268,-112.5"/>
<text text-anchor="middle" x="214.5" y="-100.5" font-family="Arial" font-size="10.00">&lt;&lt;abstract&gt;&gt;</text>
<text text-anchor="middle" x="214.5" y="-89.5" font-family="Arial" font-size="10.00">Reader</text>
<text text-anchor="middle" x="214.5" y="-78.5" font-family="Arial" font-size="10.00">─────────────────</text>
<text text-anchor="middle" x="214.5" y="-67.5" font-family="Arial" font-size="10.00">_connection</text>
<text text-anchor="middle" x="214.5" y="-56.5" font-family="Arial" font-size="10.00">─────────────────</text>
<text text-anchor="middle" x="214.5" y="-45.5" font-family="Arial" font-size="10.00">connect()</text>
<text text-anchor="middle" x="214.5" y="-34.5" font-family="Arial" font-size="10.00">send()</text>
<text text-anchor="middle" x="214.5" y="-23.5" font-family="Arial" font-size="10.00">bool()</text>
</g>
<!-- ABCMeta&#45;&gt;Reader -->
<g id="edge2" class="edge">
<title>ABCMeta&#45;&gt;Reader</title>
<path fill="none" stroke="black" stroke-dasharray="5,2" d="M214.5,-174.94C214.5,-160.76 214.5,-139.78 214.5,-119.97"/>
<polygon fill="black" stroke="black" points="216.95,-119.74 214.5,-112.74 212.05,-119.74 216.95,-119.74"/>
<text text-anchor="middle" x="237.5" y="-149.8" font-family="Times,serif" font-size="9.00">metaclass</text>
</g>
</g>
</svg>
