<?xml version="1.0" encoding="UTF-8" standalone="no"?>
<!DOCTYPE svg PUBLIC "-//W3C//DTD SVG 1.1//EN"
 "http://www.w3.org/Graphics/SVG/1.1/DTD/svg11.dtd">
<!-- Generated by graphviz version 2.43.0 (0)
 -->
<!-- Title: exceptions Pages: 1 -->
<svg width="274pt" height="1008pt"
 viewBox="0.00 0.00 274.46 1008.00" xmlns="http://www.w3.org/2000/svg" xmlns:xlink="http://www.w3.org/1999/xlink">
<g id="graph0" class="graph" transform="scale(0.7 0.7) rotate(0) translate(4 1432)">
<title>exceptions</title>
<!-- CryptnoxException -->
<g id="node1" class="node">
<title>CryptnoxException</title>
<path fill="gray" stroke="black" d="M118,-733C118,-733 12,-733 12,-733 6,-733 0,-727 0,-721 0,-721 0,-707 0,-707 0,-701 6,-695 12,-695 12,-695 118,-695 118,-695 124,-695 130,-701 130,-707 130,-707 130,-721 130,-721 130,-727 124,-733 118,-733"/>
<text text-anchor="middle" x="65" y="-717.8" font-family="Arial" font-size="14.00">CryptnoxException</text>
<text text-anchor="middle" x="65" y="-702.8" font-family="Arial" font-size="14.00">(Base)</text>
</g>
<!-- CardException -->
<g id="node2" class="node">
<title>CardException</title>
<path fill="lightgray" stroke="black" d="M339,-1428C339,-1428 282,-1428 282,-1428 276,-1428 270,-1422 270,-1416 270,-1416 270,-1404 270,-1404 270,-1398 276,-1392 282,-1392 282,-1392 339,-1392 339,-1392 345,-1392 351,-1398 351,-1404 351,-1404 351,-1416 351,-1416 351,-1422 345,-1428 339,-1428"/>
<text text-anchor="middle" x="310.5" y="-1407.5" font-family="Arial" font-size="10.00">CardException</text>
</g>
<!-- CryptnoxException&#45;&gt;CardException -->
<g id="edge1" class="edge">
<title>CryptnoxException&#45;&gt;CardException</title>
<path fill="none" stroke="black" d="M68.59,-733.15C82.22,-831.45 148.41,-1278.64 238,-1381 244.48,-1388.4 253.12,-1393.94 262.16,-1398.08"/>
<polygon fill="black" stroke="black" points="261.34,-1400.78 269.8,-1401.24 263.48,-1395.6 261.34,-1400.78"/>
</g>
<!-- CardClosedException -->
<g id="node3" class="node">
<title>CardClosedException</title>
<path fill="lightgray" stroke="black" d="M354.5,-1370C354.5,-1370 266.5,-1370 266.5,-1370 260.5,-1370 254.5,-1364 254.5,-1358 254.5,-1358 254.5,-1346 254.5,-1346 254.5,-1340 260.5,-1334 266.5,-1334 266.5,-1334 354.5,-1334 354.5,-1334 360.5,-1334 366.5,-1340 366.5,-1346 366.5,-1346 366.5,-1358 366.5,-1358 366.5,-1364 360.5,-1370 354.5,-1370"/>
<text text-anchor="middle" x="310.5" y="-1349.5" font-family="Arial" font-size="10.00">CardClosedException</text>
</g>
<!-- CryptnoxException&#45;&gt;CardClosedException -->
<g id="edge2" class="edge">
<title>CryptnoxException&#45;&gt;CardClosedException</title>
<path fill="none" stroke="black" d="M65.69,-733.2C65.39,-815.3 74.92,-1140.9 238,-1323 240.78,-1326.1 243.93,-1328.88 247.34,-1331.36"/>
<polygon fill="black" stroke="black" points="245.92,-1333.78 254.15,-1335.78 248.97,-1329.08 245.92,-1333.78"/>
</g>
<!-- CardNotBlocked -->
<g id="node4" class="node">
<title>CardNotBlocked</title>
<path fill="lightgray" stroke="black" d="M343,-1312C343,-1312 278,-1312 278,-1312 272,-1312 266,-1306 266,-1300 266,-1300 266,-1288 266,-1288 266,-1282 272,-1276 278,-1276 278,-1276 343,-1276 343,-1276 349,-1276 355,-1282 355,-1288 355,-1288 355,-1300 355,-1300 355,-1306 349,-1312 343,-1312"/>
<text text-anchor="middle" x="310.5" y="-1291.5" font-family="Arial" font-size="10.00">CardNotBlocked</text>
</g>
<!-- CryptnoxException&#45;&gt;CardNotBlocked -->
<g id="edge3" class="edge">
<title>CryptnoxException&#45;&gt;CardNotBlocked</title>
<path fill="none" stroke="black" d="M66.36,-733.21C68.85,-810.47 88.18,-1102.24 238,-1265 243.65,-1271.14 250.78,-1276 258.33,-1279.85"/>
<polygon fill="black" stroke="black" points="257.55,-1282.58 265.99,-1283.38 259.89,-1277.49 257.55,-1282.58"/>
</g>
<!-- CardTypeException -->
<g id="node5" class="node">
<title>CardTypeException</title>
<path fill="lightgray" stroke="black" d="M349.5,-1254C349.5,-1254 271.5,-1254 271.5,-1254 265.5,-1254 259.5,-1248 259.5,-1242 259.5,-1242 259.5,-1230 259.5,-1230 259.5,-1224 265.5,-1218 271.5,-1218 271.5,-1218 349.5,-1218 349.5,-1218 355.5,-1218 361.5,-1224 361.5,-1230 361.5,-1230 361.5,-1242 361.5,-1242 361.5,-1248 355.5,-1254 349.5,-1254"/>
<text text-anchor="middle" x="310.5" y="-1233.5" font-family="Arial" font-size="10.00">CardTypeException</text>
</g>
<!-- CryptnoxException&#45;&gt;CardTypeException -->
<g id="edge4" class="edge">
<title>CryptnoxException&#45;&gt;CardTypeException</title>
<path fill="none" stroke="black" d="M67.2,-733.4C72.7,-805.82 101.46,-1063.51 238,-1207 242.06,-1211.27 246.84,-1214.93 251.97,-1218.06"/>
<polygon fill="black" stroke="black" points="250.79,-1220.61 259.14,-1222.01 253.49,-1215.7 250.79,-1220.61"/>
</g>
<!-- CertificateException -->
<g id="node6" class="node">
<title>CertificateException</title>
<path fill="lightgray" stroke="black" d="M351,-1196C351,-1196 270,-1196 270,-1196 264,-1196 258,-1190 258,-1184 258,-1184 258,-1172 258,-1172 258,-1166 264,-1160 270,-1160 270,-1160 351,-1160 351,-1160 357,-1160 363,-1166 363,-1172 363,-1172 363,-1184 363,-1184 363,-1190 357,-1196 351,-1196"/>
<text text-anchor="middle" x="310.5" y="-1175.5" font-family="Arial" font-size="10.00">CertificateException</text>
</g>
<!-- CryptnoxException&#45;&gt;CertificateException -->
<g id="edge5" class="edge">
<title>CryptnoxException&#45;&gt;CertificateException</title>
<path fill="none" stroke="black" d="M68.24,-733.42C76.96,-800.39 114.51,-1024.42 238,-1149 241.8,-1152.84 246.18,-1156.18 250.86,-1159.1"/>
<polygon fill="black" stroke="black" points="249.55,-1161.58 257.89,-1163.07 252.3,-1156.7 249.55,-1161.58"/>
</g>
<!-- ConnectionException -->
<g id="node7" class="node">
<title>ConnectionException</title>
<path fill="lightgray" stroke="black" d="M353.5,-1138C353.5,-1138 267.5,-1138 267.5,-1138 261.5,-1138 255.5,-1132 255.5,-1126 255.5,-1126 255.5,-1114 255.5,-1114 255.5,-1108 261.5,-1102 267.5,-1102 267.5,-1102 353.5,-1102 353.5,-1102 359.5,-1102 365.5,-1108 365.5,-1114 365.5,-1114 365.5,-1126 365.5,-1126 365.5,-1132 359.5,-1138 353.5,-1138"/>
<text text-anchor="middle" x="310.5" y="-1117.5" font-family="Arial" font-size="10.00">ConnectionException</text>
</g>
<!-- CryptnoxException&#45;&gt;ConnectionException -->
<g id="edge6" class="edge">
<title>CryptnoxException&#45;&gt;ConnectionException</title>
<path fill="none" stroke="black" d="M69.56,-733.36C81.76,-794.4 127.36,-984.98 238,-1091 241.14,-1094.01 244.64,-1096.73 248.35,-1099.17"/>
<polygon fill="black" stroke="black" points="246.93,-1101.58 255.23,-1103.28 249.8,-1096.78 246.93,-1101.58"/>
</g>
<!-- DataException -->
<g id="node8" class="node">
<title>DataException</title>
<path fill="lightgray" stroke="black" d="M339,-1080C339,-1080 282,-1080 282,-1080 276,-1080 270,-1074 270,-1068 270,-1068 270,-1056 270,-1056 270,-1050 276,-1044 282,-1044 282,-1044 339,-1044 339,-1044 345,-1044 351,-1050 351,-1056 351,-1056 351,-1068 351,-1068 351,-1074 345,-1080 339,-1080"/>
<text text-anchor="middle" x="310.5" y="-1059.5" font-family="Arial" font-size="10.00">DataException</text>
</g>
<!-- CryptnoxException&#45;&gt;DataException -->
<g id="edge7" class="edge">
<title>CryptnoxException&#45;&gt;DataException</title>
<path fill="none" stroke="black" d="M71.25,-733.04C87.15,-787.4 139.85,-945.02 238,-1033 245.09,-1039.36 253.76,-1044.42 262.58,-1048.42"/>
<polygon fill="black" stroke="black" points="261.53,-1051.01 269.99,-1051.53 263.7,-1045.85 261.53,-1051.01"/>
</g>
<!-- DataValidationException -->
<g id="node9" class="node">
<title>DataValidationException</title>
<path fill="lightgray" stroke="black" d="M360,-1022C360,-1022 261,-1022 261,-1022 255,-1022 249,-1016 249,-1010 249,-1010 249,-998 249,-998 249,-992 255,-986 261,-986 261,-986 360,-986 360,-986 366,-986 372,-992 372,-998 372,-998 372,-1010 372,-1010 372,-1016 366,-1022 360,-1022"/>
<text text-anchor="middle" x="310.5" y="-1001.5" font-family="Arial" font-size="10.00">DataValidationException</text>
</g>
<!-- CryptnoxException&#45;&gt;DataValidationException -->
<g id="edge8" class="edge">
<title>CryptnoxException&#45;&gt;DataValidationException</title>
<path fill="none" stroke="black" d="M73.81,-733.24C94,-780.75 152.39,-904.81 238,-975 241.01,-977.47 244.27,-979.75 247.66,-981.86"/>
<polygon fill="black" stroke="black" points="246.48,-984.41 254.81,-985.94 249.25,-979.55 246.48,-984.41"/>
</g>
<!-- DerivationSelectionException -->
<g id="node10" class="node">
<title>DerivationSelectionException</title>
<path fill="lightgray" stroke="black" d="M371,-964C371,-964 250,-964 250,-964 244,-964 238,-958 238,-952 238,-952 238,-940 238,-940 238,-934 244,-928 250,-928 250,-928 371,-928 371,-928 377,-928 383,-934 383,-940 383,-940 383,-952 383,-952 383,-958 377,-964 371,-964"/>
<text text-anchor="middle" x="310.5" y="-943.5" font-family="Arial" font-size="10.00">DerivationSelectionException</text>
</g>
<!-- CryptnoxException&#45;&gt;DerivationSelectionException -->
<g id="edge9" class="edge">
<title>CryptnoxException&#45;&gt;DerivationSelectionException</title>
<path fill="none" stroke="black" d="M77.64,-733.17C102.48,-772.66 164.48,-863.77 238,-917 241.53,-919.55 245.31,-921.92 249.23,-924.12"/>
<polygon fill="black" stroke="black" points="248.02,-926.65 256.4,-927.88 250.62,-921.69 248.02,-926.65"/>
</g>
<!-- EOSKeyError -->
<g id="node11" class="node">
<title>EOSKeyError</title>
<path fill="lightgray" stroke="black" d="M336.5,-906C336.5,-906 284.5,-906 284.5,-906 278.5,-906 272.5,-900 272.5,-894 272.5,-894 272.5,-882 272.5,-882 272.5,-876 278.5,-870 284.5,-870 284.5,-870 336.5,-870 336.5,-870 342.5,-870 348.5,-876 348.5,-882 348.5,-882 348.5,-894 348.5,-894 348.5,-900 342.5,-906 336.5,-906"/>
<text text-anchor="middle" x="310.5" y="-885.5" font-family="Arial" font-size="10.00">EOSKeyError</text>
</g>
<!-- CryptnoxException&#45;&gt;EOSKeyError -->
<g id="edge10" class="edge">
<title>CryptnoxException&#45;&gt;EOSKeyError</title>
<path fill="none" stroke="black" d="M84.56,-733.15C114.53,-763.21 176.47,-821.88 238,-859 246.33,-864.03 255.7,-868.54 264.83,-872.42"/>
<polygon fill="black" stroke="black" points="263.96,-875.09 272.43,-875.53 266.08,-869.91 263.96,-875.09"/>
</g>
<!-- FirmwareException -->
<g id="node12" class="node">
<title>FirmwareException</title>
<path fill="lightgray" stroke="black" d="M349,-848C349,-848 272,-848 272,-848 266,-848 260,-842 260,-836 260,-836 260,-824 260,-824 260,-818 266,-812 272,-812 272,-812 349,-812 349,-812 355,-812 361,-818 361,-824 361,-824 361,-836 361,-836 361,-842 355,-848 349,-848"/>
<text text-anchor="middle" x="310.5" y="-827.5" font-family="Arial" font-size="10.00">FirmwareException</text>
</g>
<!-- CryptnoxException&#45;&gt;FirmwareException -->
<g id="edge11" class="edge">
<title>CryptnoxException&#45;&gt;FirmwareException</title>
<path fill="none" stroke="black" d="M101.49,-733.04C135.98,-751.28 190.02,-779.18 238,-801 243.74,-803.61 249.8,-806.25 255.85,-808.8"/>
<polygon fill="black" stroke="black" points="255.03,-811.49 263.49,-811.99 257.19,-806.33 255.03,-811.49"/>
</g>
<!-- GenericException -->
<g id="node13" class="node">
<title>GenericException</title>
<path fill="lightgray" stroke="black" d="M345.5,-790C345.5,-790 275.5,-790 275.5,-790 269.5,-790 263.5,-784 263.5,-778 263.5,-778 263.5,-766 263.5,-766 263.5,-760 269.5,-754 275.5,-754 275.5,-754 345.5,-754 345.5,-754 351.5,-754 357.5,-760 357.5,-766 357.5,-766 357.5,-778 357.5,-778 357.5,-784 351.5,-790 345.5,-790"/>
<text text-anchor="middle" x="310.5" y="-769.5" font-family="Arial" font-size="10.00">GenericException</text>
</g>
<!-- CryptnoxException&#45;&gt;GenericException -->
<g id="edge12" class="edge">
<title>CryptnoxException&#45;&gt;GenericException</title>
<path fill="none" stroke="black" d="M130.3,-729.31C169.2,-738.58 218.26,-750.27 255.21,-759.07"/>
<polygon fill="black" stroke="black" points="254.95,-761.88 263.38,-761.01 256.24,-756.44 254.95,-761.88"/>
</g>
<!-- GenuineCheckException -->
<g id="node14" class="node">
<title>GenuineCheckException</title>
<path fill="lightgray" stroke="black" d="M361,-732C361,-732 260,-732 260,-732 254,-732 248,-726 248,-720 248,-720 248,-708 248,-708 248,-702 254,-696 260,-696 260,-696 361,-696 361,-696 367,-696 373,-702 373,-708 373,-708 373,-720 373,-720 373,-726 367,-732 361,-732"/>
<text text-anchor="middle" x="310.5" y="-711.5" font-family="Arial" font-size="10.00">GenuineCheckException</text>
</g>
<!-- CryptnoxException&#45;&gt;GenuineCheckException -->
<g id="edge13" class="edge">
<title>CryptnoxException&#45;&gt;GenuineCheckException</title>
<path fill="none" stroke="black" d="M130.3,-714C163.95,-714 205.2,-714 239.64,-714"/>
<polygon fill="black" stroke="black" points="239.79,-716.8 247.79,-714 239.79,-711.2 239.79,-716.8"/>
</g>
<!-- InitializationException -->
<g id="node15" class="node">
<title>InitializationException</title>
<path fill="lightgray" stroke="black" d="M354.5,-674C354.5,-674 266.5,-674 266.5,-674 260.5,-674 254.5,-668 254.5,-662 254.5,-662 254.5,-650 254.5,-650 254.5,-644 260.5,-638 266.5,-638 266.5,-638 354.5,-638 354.5,-638 360.5,-638 366.5,-644 366.5,-650 366.5,-650 366.5,-662 366.5,-662 366.5,-668 360.5,-674 354.5,-674"/>
<text text-anchor="middle" x="310.5" y="-653.5" font-family="Arial" font-size="10.00">InitializationException</text>
</g>
<!-- CryptnoxException&#45;&gt;InitializationException -->
<g id="edge14" class="edge">
<title>CryptnoxException&#45;&gt;InitializationException</title>
<path fill="none" stroke="black" d="M130.3,-698.69C166.19,-690.14 210.72,-679.53 246.42,-671.03"/>
<polygon fill="black" stroke="black" points="247.23,-673.71 254.36,-669.13 245.93,-668.26 247.23,-673.71"/>
</g>
<!-- KeyAlreadyGenerated -->
<g id="node16" class="node">
<title>KeyAlreadyGenerated</title>
<path fill="lightgray" stroke="black" d="M354.5,-616C354.5,-616 266.5,-616 266.5,-616 260.5,-616 254.5,-610 254.5,-604 254.5,-604 254.5,-592 254.5,-592 254.5,-586 260.5,-580 266.5,-580 266.5,-580 354.5,-580 354.5,-580 360.5,-580 366.5,-586 366.5,-592 366.5,-592 366.5,-604 366.5,-604 366.5,-610 360.5,-616 354.5,-616"/>
<text text-anchor="middle" x="310.5" y="-595.5" font-family="Arial" font-size="10.00">KeyAlreadyGenerated</text>
</g>
<!-- CryptnoxException&#45;&gt;KeyAlreadyGenerated -->
<g id="edge15" class="edge">
<title>CryptnoxException&#45;&gt;KeyAlreadyGenerated</title>
<path fill="none" stroke="black" d="M101.49,-694.96C135.98,-676.72 190.02,-648.82 238,-627 243.74,-624.39 249.8,-621.75 255.85,-619.2"/>
<polygon fill="black" stroke="black" points="257.19,-621.67 263.49,-616.01 255.03,-616.51 257.19,-621.67"/>
</g>
<!-- KeyGenerationException -->
<g id="node17" class="node">
<title>KeyGenerationException</title>
<path fill="lightgray" stroke="black" d="M361,-558C361,-558 260,-558 260,-558 254,-558 248,-552 248,-546 248,-546 248,-534 248,-534 248,-528 254,-522 260,-522 260,-522 361,-522 361,-522 367,-522 373,-528 373,-534 373,-534 373,-546 373,-546 373,-552 367,-558 361,-558"/>
<text text-anchor="middle" x="310.5" y="-537.5" font-family="Arial" font-size="10.00">KeyGenerationException</text>
</g>
<!-- CryptnoxException&#45;&gt;KeyGenerationException -->
<g id="edge16" class="edge">
<title>CryptnoxException&#45;&gt;KeyGenerationException</title>
<path fill="none" stroke="black" d="M84.56,-694.85C114.53,-664.79 176.47,-606.12 238,-569 242.37,-566.37 247.01,-563.87 251.76,-561.54"/>
<polygon fill="black" stroke="black" points="253.24,-563.94 259.29,-558.01 250.85,-558.87 253.24,-563.94"/>
</g>
<!-- KeySelectionException -->
<g id="node18" class="node">
<title>KeySelectionException</title>
<path fill="lightgray" stroke="black" d="M357.5,-500C357.5,-500 263.5,-500 263.5,-500 257.5,-500 251.5,-494 251.5,-488 251.5,-488 251.5,-476 251.5,-476 251.5,-470 257.5,-464 263.5,-464 263.5,-464 357.5,-464 357.5,-464 363.5,-464 369.5,-470 369.5,-476 369.5,-476 369.5,-488 369.5,-488 369.5,-494 363.5,-500 357.5,-500"/>
<text text-anchor="middle" x="310.5" y="-479.5" font-family="Arial" font-size="10.00">KeySelectionException</text>
</g>
<!-- CryptnoxException&#45;&gt;KeySelectionException -->
<g id="edge17" class="edge">
<title>CryptnoxException&#45;&gt;KeySelectionException</title>
<path fill="none" stroke="black" d="M77.64,-694.83C102.48,-655.34 164.48,-564.23 238,-511 241.53,-508.45 245.31,-506.08 249.23,-503.88"/>
<polygon fill="black" stroke="black" points="250.62,-506.31 256.4,-500.12 248.02,-501.35 250.62,-506.31"/>
</g>
<!-- PinAuthenticationException -->
<g id="node19" class="node">
<title>PinAuthenticationException</title>
<path fill="lightgray" stroke="black" d="M367,-442C367,-442 254,-442 254,-442 248,-442 242,-436 242,-430 242,-430 242,-418 242,-418 242,-412 248,-406 254,-406 254,-406 367,-406 367,-406 373,-406 379,-412 379,-418 379,-418 379,-430 379,-430 379,-436 373,-442 367,-442"/>
<text text-anchor="middle" x="310.5" y="-421.5" font-family="Arial" font-size="10.00">PinAuthenticationException</text>
</g>
<!-- CryptnoxException&#45;&gt;PinAuthenticationException -->
<g id="edge18" class="edge">
<title>CryptnoxException&#45;&gt;PinAuthenticationException</title>
<path fill="none" stroke="black" d="M73.81,-694.76C94,-647.25 152.39,-523.19 238,-453 241.01,-450.53 244.27,-448.25 247.66,-446.14"/>
<polygon fill="black" stroke="black" points="249.25,-448.45 254.81,-442.06 246.48,-443.59 249.25,-448.45"/>
</g>
<!-- PinException -->
<g id="node20" class="node">
<title>PinException</title>
<path fill="lightgray" stroke="black" d="M335.5,-384C335.5,-384 285.5,-384 285.5,-384 279.5,-384 273.5,-378 273.5,-372 273.5,-372 273.5,-360 273.5,-360 273.5,-354 279.5,-348 285.5,-348 285.5,-348 335.5,-348 335.5,-348 341.5,-348 347.5,-354 347.5,-360 347.5,-360 347.5,-372 347.5,-372 347.5,-378 341.5,-384 335.5,-384"/>
<text text-anchor="middle" x="310.5" y="-363.5" font-family="Arial" font-size="10.00">PinException</text>
</g>
<!-- CryptnoxException&#45;&gt;PinException -->
<g id="edge19" class="edge">
<title>CryptnoxException&#45;&gt;PinException</title>
<path fill="none" stroke="black" d="M71.25,-694.96C87.15,-640.6 139.85,-482.98 238,-395 245.95,-387.88 255.88,-382.38 265.78,-378.18"/>
<polygon fill="black" stroke="black" points="266.9,-380.75 273.32,-375.22 264.85,-375.54 266.9,-380.75"/>
</g>
<!-- PukException -->
<g id="node21" class="node">
<title>PukException</title>
<path fill="lightgray" stroke="black" d="M337,-326C337,-326 284,-326 284,-326 278,-326 272,-320 272,-314 272,-314 272,-302 272,-302 272,-296 278,-290 284,-290 284,-290 337,-290 337,-290 343,-290 349,-296 349,-302 349,-302 349,-314 349,-314 349,-320 343,-326 337,-326"/>
<text text-anchor="middle" x="310.5" y="-305.5" font-family="Arial" font-size="10.00">PukException</text>
</g>
<!-- CryptnoxException&#45;&gt;PukException -->
<g id="edge20" class="edge">
<title>CryptnoxException&#45;&gt;PukException</title>
<path fill="none" stroke="black" d="M69.56,-694.64C81.76,-633.6 127.36,-443.02 238,-337 245.4,-329.91 254.77,-324.46 264.27,-320.32"/>
<polygon fill="black" stroke="black" points="265.49,-322.84 271.87,-317.26 263.41,-317.64 265.49,-322.84"/>
</g>
<!-- ReadPublicKeyException -->
<g id="node22" class="node">
<title>ReadPublicKeyException</title>
<path fill="lightgray" stroke="black" d="M362.5,-268C362.5,-268 258.5,-268 258.5,-268 252.5,-268 246.5,-262 246.5,-256 246.5,-256 246.5,-244 246.5,-244 246.5,-238 252.5,-232 258.5,-232 258.5,-232 362.5,-232 362.5,-232 368.5,-232 374.5,-238 374.5,-244 374.5,-244 374.5,-256 374.5,-256 374.5,-262 368.5,-268 362.5,-268"/>
<text text-anchor="middle" x="310.5" y="-247.5" font-family="Arial" font-size="10.00">ReadPublicKeyException</text>
</g>
<!-- CryptnoxException&#45;&gt;ReadPublicKeyException -->
<g id="edge21" class="edge">
<title>CryptnoxException&#45;&gt;ReadPublicKeyException</title>
<path fill="none" stroke="black" d="M68.24,-694.58C76.96,-627.61 114.51,-403.58 238,-279 240.2,-276.78 242.6,-274.72 245.14,-272.81"/>
<polygon fill="black" stroke="black" points="247.06,-274.89 252.15,-268.11 243.94,-270.24 247.06,-274.89"/>
</g>
<!-- ReaderException -->
<g id="node23" class="node">
<title>ReaderException</title>
<path fill="lightgray" stroke="black" d="M344.5,-210C344.5,-210 276.5,-210 276.5,-210 270.5,-210 264.5,-204 264.5,-198 264.5,-198 264.5,-186 264.5,-186 264.5,-180 270.5,-174 276.5,-174 276.5,-174 344.5,-174 344.5,-174 350.5,-174 356.5,-180 356.5,-186 356.5,-186 356.5,-198 356.5,-198 356.5,-204 350.5,-210 344.5,-210"/>
<text text-anchor="middle" x="310.5" y="-189.5" font-family="Arial" font-size="10.00">ReaderException</text>
</g>
<!-- CryptnoxException&#45;&gt;ReaderException -->
<g id="edge22" class="edge">
<title>CryptnoxException&#45;&gt;ReaderException</title>
<path fill="none" stroke="black" d="M67.2,-694.6C72.7,-622.18 101.46,-364.49 238,-221 243.29,-215.44 249.79,-210.92 256.7,-207.25"/>
<polygon fill="black" stroke="black" points="258.32,-209.57 264.31,-203.59 255.89,-204.53 258.32,-209.57"/>
</g>
<!-- SecureChannelException -->
<g id="node24" class="node">
<title>SecureChannelException</title>
<path fill="lightgray" stroke="black" d="M362,-152C362,-152 259,-152 259,-152 253,-152 247,-146 247,-140 247,-140 247,-128 247,-128 247,-122 253,-116 259,-116 259,-116 362,-116 362,-116 368,-116 374,-122 374,-128 374,-128 374,-140 374,-140 374,-146 368,-152 362,-152"/>
<text text-anchor="middle" x="310.5" y="-131.5" font-family="Arial" font-size="10.00">SecureChannelException</text>
</g>
<!-- CryptnoxException&#45;&gt;SecureChannelException -->
<g id="edge23" class="edge">
<title>CryptnoxException&#45;&gt;SecureChannelException</title>
<path fill="none" stroke="black" d="M66.36,-694.79C68.85,-617.53 88.18,-325.76 238,-163 240.07,-160.75 242.34,-158.67 244.76,-156.75"/>
<polygon fill="black" stroke="black" points="246.55,-158.91 251.48,-152.02 243.32,-154.34 246.55,-158.91"/>
</g>
<!-- SeedException -->
<g id="node25" class="node">
<title>SeedException</title>
<path fill="lightgray" stroke="black" d="M340,-94C340,-94 281,-94 281,-94 275,-94 269,-88 269,-82 269,-82 269,-70 269,-70 269,-64 275,-58 281,-58 281,-58 340,-58 340,-58 346,-58 352,-64 352,-70 352,-70 352,-82 352,-82 352,-88 346,-94 340,-94"/>
<text text-anchor="middle" x="310.5" y="-73.5" font-family="Arial" font-size="10.00">SeedException</text>
</g>
<!-- CryptnoxException&#45;&gt;SeedException -->
<g id="edge24" class="edge">
<title>CryptnoxException&#45;&gt;SeedException</title>
<path fill="none" stroke="black" d="M65.69,-694.8C65.39,-612.7 74.92,-287.1 238,-105 244.35,-97.91 252.69,-92.52 261.42,-88.43"/>
<polygon fill="black" stroke="black" points="262.54,-91 268.82,-85.3 260.36,-85.84 262.54,-91"/>
</g>
<!-- SoftLock -->
<g id="node26" class="node">
<title>SoftLock</title>
<path fill="lightgray" stroke="black" d="M326.5,-36C326.5,-36 294.5,-36 294.5,-36 288.5,-36 282.5,-30 282.5,-24 282.5,-24 282.5,-12 282.5,-12 282.5,-6 288.5,0 294.5,0 294.5,0 326.5,0 326.5,0 332.5,0 338.5,-6 338.5,-12 338.5,-12 338.5,-24 338.5,-24 338.5,-30 332.5,-36 326.5,-36"/>
<text text-anchor="middle" x="310.5" y="-15.5" font-family="Arial" font-size="10.00">SoftLock</text>
</g>
<!-- CryptnoxException&#45;&gt;SoftLock -->
<g id="edge25" class="edge">
<title>CryptnoxException&#45;&gt;SoftLock</title>
<path fill="none" stroke="black" d="M68.59,-694.85C82.22,-596.55 148.41,-149.36 238,-47 247.35,-36.31 261.22,-29.51 274.26,-25.2"/>
<polygon fill="black" stroke="black" points="275.35,-27.79 282.22,-22.82 273.75,-22.42 275.35,-27.79"/>
</g>
</g>
</svg>
