<?xml version="1.0" encoding="UTF-8" standalone="no"?>
<!DOCTYPE svg PUBLIC "-//W3C//DTD SVG 1.1//EN"
 "http://www.w3.org/Graphics/SVG/1.1/DTD/svg11.dtd">
<!-- Generated by graphviz version 2.43.0 (0)
 -->
<!-- Title: card_init Pages: 1 -->
<svg width="123pt" height="476pt"
 viewBox="0.00 0.00 123.00 476.00" xmlns="http://www.w3.org/2000/svg" xmlns:xlink="http://www.w3.org/1999/xlink">
<g id="graph0" class="graph" transform="scale(1 1) rotate(0) translate(4 472)">
<title>card_init</title>
<!-- GetCard -->
<g id="node1" class="node">
<title>GetCard</title>
<ellipse fill="gray" stroke="black" cx="57.5" cy="-450" rx="35.14" ry="18"/>
<text text-anchor="middle" x="57.5" y="-447.5" font-family="Arial" font-size="10.00">get_card()</text>
</g>
<!-- Detect -->
<g id="node2" class="node">
<title>Detect</title>
<path fill="lightgray" stroke="black" d="M92,-396C92,-396 23,-396 23,-396 17,-396 11,-390 11,-384 11,-384 11,-372 11,-372 11,-366 17,-360 23,-360 23,-360 92,-360 92,-360 98,-360 104,-366 104,-372 104,-372 104,-384 104,-384 104,-390 98,-396 92,-396"/>
<text text-anchor="middle" x="57.5" y="-375.5" font-family="Arial" font-size="10.00">Detect Card Type</text>
</g>
<!-- GetCard&#45;&gt;Detect -->
<g id="edge1" class="edge">
<title>GetCard&#45;&gt;Detect</title>
<path fill="none" stroke="black" d="M57.5,-431.7C57.5,-423.98 57.5,-414.71 57.5,-406.11"/>
<polygon fill="black" stroke="black" points="61,-406.1 57.5,-396.1 54,-406.1 61,-406.1"/>
</g>
<!-- Select -->
<g id="node3" class="node">
<title>Select</title>
<path fill="lightgray" stroke="black" d="M82.5,-324C82.5,-324 32.5,-324 32.5,-324 26.5,-324 20.5,-318 20.5,-312 20.5,-312 20.5,-300 20.5,-300 20.5,-294 26.5,-288 32.5,-288 32.5,-288 82.5,-288 82.5,-288 88.5,-288 94.5,-294 94.5,-300 94.5,-300 94.5,-312 94.5,-312 94.5,-318 88.5,-324 82.5,-324"/>
<text text-anchor="middle" x="57.5" y="-303.5" font-family="Arial" font-size="10.00">Select Applet</text>
</g>
<!-- Detect&#45;&gt;Select -->
<g id="edge2" class="edge">
<title>Detect&#45;&gt;Select</title>
<path fill="none" stroke="black" d="M57.5,-359.7C57.5,-351.98 57.5,-342.71 57.5,-334.11"/>
<polygon fill="black" stroke="black" points="61,-334.1 57.5,-324.1 54,-334.1 61,-334.1"/>
</g>
<!-- Serial -->
<g id="node4" class="node">
<title>Serial</title>
<path fill="lightgray" stroke="black" d="M94.5,-252C94.5,-252 20.5,-252 20.5,-252 14.5,-252 8.5,-246 8.5,-240 8.5,-240 8.5,-228 8.5,-228 8.5,-222 14.5,-216 20.5,-216 20.5,-216 94.5,-216 94.5,-216 100.5,-216 106.5,-222 106.5,-228 106.5,-228 106.5,-240 106.5,-240 106.5,-246 100.5,-252 94.5,-252"/>
<text text-anchor="middle" x="57.5" y="-231.5" font-family="Arial" font-size="10.00">Get Serial Number</text>
</g>
<!-- Select&#45;&gt;Serial -->
<g id="edge3" class="edge">
<title>Select&#45;&gt;Serial</title>
<path fill="none" stroke="black" d="M57.5,-287.7C57.5,-279.98 57.5,-270.71 57.5,-262.11"/>
<polygon fill="black" stroke="black" points="61,-262.1 57.5,-252.1 54,-262.1 61,-262.1"/>
</g>
<!-- SessionKey -->
<g id="node5" class="node">
<title>SessionKey</title>
<path fill="lightgray" stroke="black" d="M91,-180C91,-180 24,-180 24,-180 18,-180 12,-174 12,-168 12,-168 12,-156 12,-156 12,-150 18,-144 24,-144 24,-144 91,-144 91,-144 97,-144 103,-150 103,-156 103,-156 103,-168 103,-168 103,-174 97,-180 91,-180"/>
<text text-anchor="middle" x="57.5" y="-159.5" font-family="Arial" font-size="10.00">Get Session Key</text>
</g>
<!-- Serial&#45;&gt;SessionKey -->
<g id="edge4" class="edge">
<title>Serial&#45;&gt;SessionKey</title>
<path fill="none" stroke="black" d="M57.5,-215.7C57.5,-207.98 57.5,-198.71 57.5,-190.11"/>
<polygon fill="black" stroke="black" points="61,-190.1 57.5,-180.1 54,-190.1 61,-190.1"/>
</g>
<!-- Instantiate -->
<g id="node6" class="node">
<title>Instantiate</title>
<path fill="lightgray" stroke="black" d="M103,-108C103,-108 12,-108 12,-108 6,-108 0,-102 0,-96 0,-96 0,-84 0,-84 0,-78 6,-72 12,-72 12,-72 103,-72 103,-72 109,-72 115,-78 115,-84 115,-84 115,-96 115,-96 115,-102 109,-108 103,-108"/>
<text text-anchor="middle" x="57.5" y="-87.5" font-family="Arial" font-size="10.00">Instantiate Card Class</text>
</g>
<!-- SessionKey&#45;&gt;Instantiate -->
<g id="edge5" class="edge">
<title>SessionKey&#45;&gt;Instantiate</title>
<path fill="none" stroke="black" d="M57.5,-143.7C57.5,-135.98 57.5,-126.71 57.5,-118.11"/>
<polygon fill="black" stroke="black" points="61,-118.1 57.5,-108.1 54,-118.1 61,-118.1"/>
</g>
<!-- Ready -->
<g id="node7" class="node">
<title>Ready</title>
<ellipse fill="gray" stroke="black" cx="57.5" cy="-18" rx="40.74" ry="18"/>
<text text-anchor="middle" x="57.5" y="-15.5" font-family="Arial" font-size="10.00">Card Ready</text>
</g>
<!-- Instantiate&#45;&gt;Ready -->
<g id="edge6" class="edge">
<title>Instantiate&#45;&gt;Ready</title>
<path fill="none" stroke="black" d="M57.5,-71.7C57.5,-63.98 57.5,-54.71 57.5,-46.11"/>
<polygon fill="black" stroke="black" points="61,-46.1 57.5,-36.1 54,-46.1 61,-46.1"/>
</g>
</g>
</svg>
